<svg width="127" height="121" viewBox="0 0 127 121" fill="none" xmlns="http://www.w3.org/2000/svg">
<g id="delivery-truck 2" clip-path="url(#clip0_175_269)">
<path id="Vector" d="M103.346 79.57C100.28 79.57 97.3671 80.728 95.1697 82.8223C92.9724 84.9412 91.746 87.7007 91.746 90.6573C91.746 93.6139 92.9469 96.3735 95.1697 98.4924C97.3926 100.587 100.28 101.745 103.346 101.745C109.631 101.745 114.741 96.7677 114.741 90.6573C114.741 84.547 109.631 79.57 103.346 79.57ZM103.346 96.817C99.8199 96.817 96.8561 94.0082 96.8561 90.6573C96.8561 87.3065 99.8199 84.4977 103.346 84.4977C106.821 84.4977 109.631 87.2572 109.631 90.6573C109.631 94.0574 106.821 96.817 103.346 96.817ZM106.31 42.6367C105.85 42.2179 105.237 41.9962 104.598 41.9962H91.4905C90.0852 41.9962 88.9354 43.1049 88.9354 44.46V64.6636C88.9354 66.0188 90.0852 67.1275 91.4905 67.1275H112.288C113.694 67.1275 114.843 66.0188 114.843 64.6636V51.1371C114.843 50.4472 114.537 49.7819 114 49.3138L106.31 42.6367ZM109.733 62.1998H94.0455V46.8992H103.601L109.733 52.2212V62.1998ZM40.9519 79.57C37.8859 79.57 34.9731 80.728 32.7758 82.8223C30.5785 84.9412 29.3521 87.7007 29.3521 90.6573C29.3521 93.6139 30.5529 96.3735 32.7758 98.4924C34.9987 100.587 37.8859 101.745 40.9519 101.745C47.2373 101.745 52.3474 96.7677 52.3474 90.6573C52.3474 84.547 47.2373 79.57 40.9519 79.57ZM40.9519 96.817C37.426 96.817 34.4621 94.0082 34.4621 90.6573C34.4621 87.3065 37.426 84.4977 40.9519 84.4977C44.4268 84.4977 47.2373 87.2572 47.2373 90.6573C47.2373 94.0574 44.4268 96.817 40.9519 96.817ZM23.9098 82.6005H18.7742V76.0467C18.7742 74.6915 17.6245 73.5828 16.2192 73.5828C14.8139 73.5828 13.6642 74.6915 13.6642 76.0467V85.0644C13.6642 86.4195 14.8139 87.5282 16.2192 87.5282H23.9098C25.3151 87.5282 26.4649 86.4195 26.4649 85.0644C26.4649 83.7092 25.3151 82.6005 23.9098 82.6005ZM36.8639 69.1725C36.8639 67.8174 35.7141 66.7086 34.3088 66.7086H3.31626C1.911 66.7086 0.76123 67.8174 0.76123 69.1725C0.76123 70.5276 1.911 71.6363 3.31626 71.6363H34.3088C35.7141 71.6363 36.8639 70.5522 36.8639 69.1725ZM8.50298 60.278L39.4955 60.4504C40.9008 60.4504 42.0506 59.3663 42.0761 58.0112C42.1017 56.6315 40.9519 55.5227 39.5466 55.5227L8.55408 55.3503C8.52853 55.3503 8.52853 55.3503 8.52853 55.3503C7.12326 55.3503 5.9735 56.4343 5.9735 57.7895C5.94795 59.1692 7.09771 60.278 8.50298 60.278ZM13.7153 49.0921H44.7078C46.1131 49.0921 47.2628 47.9833 47.2628 46.6282C47.2628 45.2731 46.1131 44.1643 44.7078 44.1643H13.7153C12.31 44.1643 11.1602 45.2731 11.1602 46.6282C11.1602 47.9833 12.31 49.0921 13.7153 49.0921ZM125.294 45.7659L107 31.1552C106.54 30.7856 105.978 30.5885 105.364 30.5885H83.8509V21.7186C83.8509 20.3635 82.7012 19.2548 81.2959 19.2548H16.2192C14.8139 19.2548 13.6642 20.3635 13.6642 21.7186V39.754C13.6642 41.1092 14.8139 42.2179 16.2192 42.2179C17.6245 42.2179 18.7742 41.1092 18.7742 39.754V24.1825H78.7664V82.6005H57.8151C56.4099 82.6005 55.2601 83.7092 55.2601 85.0644C55.2601 86.4195 56.4099 87.5282 57.8151 87.5282H89.0121C90.4174 87.5282 91.5671 86.4195 91.5671 85.0644C91.5671 83.7092 90.4174 82.6005 89.0121 82.6005H83.8765V35.5162H104.47L121.129 48.821L120.95 82.5512H118.293C116.888 82.5512 115.738 83.66 115.738 85.0151C115.738 86.3702 116.888 87.4789 118.293 87.4789H123.48C124.885 87.4789 126.035 86.3949 126.035 85.0397L126.239 47.6877C126.213 46.9485 125.881 46.234 125.294 45.7659Z" fill="#257009"/>
</g>
<defs>
<clipPath id="clip0_175_269">
<rect width="125.478" height="121" fill="white" transform="translate(0.76123)"/>
</clipPath>
</defs>
</svg>
