<svg width="127" height="110" viewBox="0 0 127 110" fill="none" xmlns="http://www.w3.org/2000/svg">
<g id="Group">
<path id="Blob" fill-rule="evenodd" clip-rule="evenodd" d="M41.858 86.5349C20.1736 69.5899 11.302 47.5045 23.8586 26.8757C38.9092 2.14984 44.0628 39.2266 67.1743 32.6617C90.2858 26.0968 121.079 42.4148 105.329 71.4905C90.5849 98.7091 63.5424 103.48 41.858 86.5349Z" fill="#FFCDCD"/>
<path id="Vector" d="M32.1045 75.1077C26.8661 70.0486 22.8457 64.3014 20.0432 57.8661C17.2406 51.4307 15.8394 44.6609 15.8394 37.5567C15.8394 30.4525 17.2406 23.6846 20.0432 17.2531C22.8457 10.814 26.8661 5.06292 32.1045 0L36.0571 3.81737C31.3729 8.33825 27.7611 13.5069 25.2217 19.3233C22.6823 25.1397 21.4105 31.2175 21.4066 37.5567C21.4026 43.8959 22.6743 49.9757 25.2217 55.7959C27.7691 61.6162 31.3809 66.781 36.0571 71.2903L32.1045 75.1077ZM45.858 61.8449C42.5173 58.6042 39.9679 54.8983 38.2098 50.7272C36.4558 46.5485 35.5787 42.1602 35.5787 37.5625C35.5787 32.9609 36.4558 28.5726 38.2098 24.3977C39.9679 20.219 42.5173 16.5093 45.858 13.2685L49.8107 17.0859C46.9204 19.873 44.7538 23.0215 43.3106 26.5313C41.8675 30.0411 41.1439 33.7163 41.1399 37.5567C41.136 41.3972 41.8595 45.0742 43.3106 48.5879C44.7617 52.1016 46.9284 55.2481 49.8107 58.0275L45.858 61.8449ZM68.0491 95.8898V48.1612C65.5097 47.5961 63.4566 46.3351 61.8899 44.3784C60.3232 42.4178 59.5398 40.1439 59.5398 37.5567C59.5398 34.4505 60.6521 31.8268 62.8766 29.6855C65.0971 27.5404 67.8179 26.4679 71.039 26.4679C74.2602 26.4679 76.983 27.5404 79.2075 29.6855C81.4319 31.8307 82.5422 34.4544 82.5382 37.5567C82.5382 40.1439 81.7549 42.4178 80.1881 44.3784C78.6214 46.339 76.5684 47.5999 74.0289 48.1612V95.8898H68.0491ZM96.226 61.8449L92.2674 58.0275C95.1576 55.2404 97.3263 52.0919 98.7734 48.5821C100.221 45.0723 100.942 41.3972 100.938 37.5567C100.934 33.7163 100.211 30.0411 98.7674 26.5313C97.3243 23.0215 95.1576 19.873 92.2674 17.0859L96.226 13.2685C99.5627 16.5093 102.11 20.2152 103.868 24.3862C105.622 28.5611 106.499 32.9493 106.499 37.5509C106.499 42.1525 105.622 46.5408 103.868 50.7157C102.114 54.8906 99.5667 58.6003 96.226 61.8449ZM109.98 75.1077L106.021 71.2903C110.705 66.7733 114.319 61.6085 116.862 55.7959C119.406 49.9834 120.675 43.9036 120.671 37.5567C120.667 31.2098 119.396 25.132 116.856 19.3233C114.317 13.5146 110.705 8.34786 106.021 3.82314L109.98 0.00576601C115.214 5.06869 119.232 10.8159 122.035 17.2474C124.837 23.6789 126.239 30.4486 126.239 37.5567C126.239 44.6648 124.837 51.4346 122.035 57.8661C119.232 64.2975 115.214 70.0447 109.98 75.1077Z" fill="#257009"/>
</g>
</svg>
