<svg width="127" height="119" viewBox="0 0 127 119" fill="none" xmlns="http://www.w3.org/2000/svg">
<g id="Group">
<path id="Blob" fill-rule="evenodd" clip-rule="evenodd" d="M44.1132 95.7868C21.1926 79.0427 11.8154 57.2193 25.0878 36.8352C40.9963 12.4025 46.4437 49.0395 70.8727 42.5525C95.3018 36.0654 127.85 52.1899 111.202 80.9209C95.6178 107.817 67.0338 112.531 44.1132 95.7868Z" fill="#FFCDCD"/>
<g id="Group_2">
<path id="Vector" d="M114.641 95.7261L107.59 24.0973C107.464 22.6798 106.145 21.6053 104.547 21.6053H89.6855C89.6601 9.69379 78.907 0 65.6939 0C52.4808 0 41.7277 9.69379 41.7024 21.6053H26.8408C25.2684 21.6053 23.9496 22.6798 23.7974 24.0973L16.7471 95.7261C16.7471 95.8176 16.7471 95.8862 16.7471 95.9776C16.7471 103.957 24.888 110.45 34.8802 110.45H96.5076C106.5 110.45 114.641 103.957 114.641 95.9776C114.641 95.8862 114.641 95.8176 114.641 95.7261ZM65.6939 5.48705C75.5594 5.48705 83.5735 12.7117 83.5988 21.6053H47.789C47.8144 12.7117 55.8285 5.48705 65.6939 5.48705ZM96.5076 104.94H34.8802C28.2864 104.94 22.9098 100.985 22.8337 96.0691L29.6305 27.0923H41.7024V36.7175C41.7024 38.2264 43.0719 39.461 44.7457 39.461C46.4195 39.461 47.789 38.2264 47.789 36.7175V27.0923H83.5988V36.7175C83.5988 38.2264 84.9683 39.461 86.6422 39.461C88.316 39.461 89.6855 38.2264 89.6855 36.7175V27.0923H101.757L108.554 96.0919C108.478 100.985 103.102 104.94 96.5076 104.94Z" fill="#257009"/>
<path id="Vector_2" d="M78.3477 57.111L60.3921 73.2978L53.0628 66.6905C51.8708 65.616 49.9434 65.616 48.7514 66.6905C47.5594 67.7651 47.5594 69.5026 48.7514 70.5772L58.2364 79.1278C58.8197 79.6537 59.6059 79.928 60.3921 79.928C61.1783 79.928 61.9391 79.6537 62.5478 79.1278L82.6591 60.9977C83.8511 59.9231 83.8511 58.1856 82.6591 57.111C81.4671 56.0593 79.5397 56.0593 78.3477 57.111Z" fill="#257009"/>
</g>
</g>
</svg>
