<svg width="45" height="45" viewBox="0 0 45 45" fill="none" xmlns="http://www.w3.org/2000/svg">
<g id="Icon">
<path id="Circle 2" opacity="0.21" fill-rule="evenodd" clip-rule="evenodd" d="M0.886719 22.5691V27.6982C0.886719 37.0059 8.43205 44.5512 17.7397 44.5512H22.8689H27.998C37.3057 44.5512 44.851 37.0059 44.851 27.6983V22.5691V17.4399C44.851 8.13226 37.3057 0.586914 27.9981 0.586914H22.8689H17.7397C8.43206 0.586914 0.886719 8.13225 0.886719 17.4399V22.5691Z" fill="#E6B863"/>
<g id="icon">
<path id="Combined Shape" fill-rule="evenodd" clip-rule="evenodd" d="M11.877 18.4037L21.3296 23.8612C21.4314 23.92 21.5382 23.9625 21.6468 23.9894V34.574L12.5511 29.1911C12.1333 28.9438 11.877 28.4943 11.877 28.0088V18.4037ZM33.8591 18.2588V28.0089C33.8591 28.4945 33.6028 28.944 33.1849 29.1913L24.0893 34.5741V23.8968C24.1114 23.8857 24.1334 23.8739 24.1551 23.8614L33.8591 18.2588Z" fill="#E6B863"/>
<path id="Path" opacity="0.499209" fill-rule="evenodd" clip-rule="evenodd" d="M12.1738 15.7554C12.2893 15.6096 12.435 15.4864 12.6049 15.3959L22.2221 10.2736C22.6259 10.0585 23.1101 10.0585 23.5139 10.2736L33.131 15.3959C33.262 15.4657 33.3786 15.5549 33.4781 15.6589L22.9339 21.7466C22.8645 21.7866 22.8006 21.8324 22.7423 21.883C22.6841 21.8324 22.6202 21.7866 22.5508 21.7466L12.1738 15.7554Z" fill="#E6B863"/>
</g>
</g>
</svg>
