<svg width="45" height="45" viewBox="0 0 45 45" fill="none" xmlns="http://www.w3.org/2000/svg">
<g id="Icon">
<path id="Circle 2" opacity="0.21" fill-rule="evenodd" clip-rule="evenodd" d="M0.115234 22.5691V27.6982C0.115234 37.0059 7.66057 44.5512 16.9682 44.5512H22.0974H27.2266C36.5342 44.5512 44.0796 37.0059 44.0796 27.6983V22.5691V17.4399C44.0796 8.13226 36.5342 0.586914 27.2266 0.586914H22.0974H16.9682C7.66058 0.586914 0.115234 8.13225 0.115234 17.4399V22.5691Z" fill="#80F2FF"/>
<g id="Group">
<path id="Combined Shape" opacity="0.587821" fill-rule="evenodd" clip-rule="evenodd" d="M15.2578 17.6833C15.2578 19.8416 17.0075 21.5913 19.1658 21.5913C21.324 21.5913 23.0737 19.8416 23.0737 17.6833C23.0737 15.525 21.324 13.7754 19.1658 13.7754C17.0075 13.7754 15.2578 15.525 15.2578 17.6833ZM25.0276 21.5916C25.0276 23.2103 26.3399 24.5225 27.9586 24.5225C29.5773 24.5225 30.8896 23.2103 30.8896 21.5916C30.8896 19.9729 29.5773 18.6606 27.9586 18.6606C26.3399 18.6606 25.0276 19.9729 25.0276 21.5916Z" fill="#89E9F0"/>
<path id="Combined Shape_2" fill-rule="evenodd" clip-rule="evenodd" d="M19.1496 23.5449C14.5369 23.5449 10.7524 25.9156 10.3737 30.5784C10.3531 30.8324 10.8388 31.3608 11.0838 31.3608H27.2228C27.9567 31.3608 27.9681 30.7702 27.9567 30.5792C27.6705 25.7853 23.8273 23.5449 19.1496 23.5449ZM27.5686 25.4995C28.795 27.1322 29.5217 29.1616 29.5219 31.3608H33.2891C33.8191 31.3608 33.8273 30.9179 33.8191 30.7746C33.6146 27.2184 30.8969 25.5358 27.5686 25.4995Z" fill="#89E9F0"/>
</g>
</g>
</svg>
