<svg width="45" height="45" viewBox="0 0 45 45" fill="none" xmlns="http://www.w3.org/2000/svg">
<g id="Icon">
<path id="Circle 2" opacity="0.3" fill-rule="evenodd" clip-rule="evenodd" d="M0.5 22.5691V27.6982C0.5 37.0059 8.04533 44.5512 17.353 44.5512H22.4822H27.6113C36.919 44.5512 44.4643 37.0059 44.4643 27.6983V22.5691V17.4399C44.4643 8.13226 36.919 0.586914 27.6113 0.586914H22.4822H17.353C8.04534 0.586914 0.5 8.13225 0.5 17.4399V22.5691Z" fill="#F5624F"/>
<g id="icon">
<path id="Path 107" opacity="0.78" fill-rule="evenodd" clip-rule="evenodd" d="M21.4798 18.0336C21.4945 17.8427 21.6537 17.6953 21.8451 17.6953H22.1513C22.3395 17.6953 22.4971 17.8379 22.5158 18.0252L22.9713 22.5802L26.2062 24.4287C26.3203 24.494 26.3908 24.6153 26.3908 24.7468V25.0315C26.3908 25.2731 26.1611 25.4485 25.928 25.385L21.3095 24.1254C21.1399 24.0791 21.0271 23.919 21.0406 23.7438L21.4798 18.0336Z" fill="#F5624F"/>
<path id="Combined Shape" opacity="0.901274" fill-rule="evenodd" clip-rule="evenodd" d="M17.1499 11.5667C16.9564 11.336 16.5827 11.4243 16.5129 11.7171L15.316 16.735C15.2591 16.9737 15.4482 17.1997 15.6931 17.1858L20.855 16.8933C21.1561 16.8762 21.3088 16.523 21.115 16.292L19.795 14.719C20.6485 14.4273 21.5536 14.275 22.483 14.275C27.0693 14.275 30.7873 17.993 30.7873 22.5793C30.7873 27.1657 27.0693 30.8837 22.483 30.8837C17.8966 30.8837 14.1786 27.1657 14.1786 22.5793C14.1786 21.8094 14.2828 21.0553 14.4861 20.3305L12.6048 19.8028C12.3571 20.6859 12.2246 21.6171 12.2246 22.5793C12.2246 28.2449 16.8174 32.8377 22.483 32.8377C28.1485 32.8377 32.7413 28.2449 32.7413 22.5793C32.7413 16.9138 28.1485 12.321 22.483 12.321C21.0579 12.321 19.7007 12.6116 18.4674 13.1367L17.1499 11.5667Z" fill="#F5624F"/>
</g>
</g>
</svg>
