<svg width="45" height="45" viewBox="0 0 45 45" fill="none" xmlns="http://www.w3.org/2000/svg">
<g id="Icon">
<path id="Circle 2" opacity="0.21" fill-rule="evenodd" clip-rule="evenodd" d="M0.271484 22.5691V27.6982C0.271484 37.0059 7.81682 44.5512 17.1245 44.5512H22.2536H27.3828C36.6905 44.5512 44.2358 37.0059 44.2358 27.6983V22.5691V17.4399C44.2358 8.13226 36.6905 0.586914 27.3828 0.586914H22.2536H17.1245C7.81683 0.586914 0.271484 8.13225 0.271484 17.4399V22.5691Z" fill="#4C9A30"/>
<g id="icon">
<path id="Path 95" d="M14.2757 30.5476H31.373C32.0025 30.5476 32.5128 31.0579 32.5128 31.6874C32.5128 32.3169 32.0025 32.8272 31.373 32.8272H13.1359C12.5064 32.8272 11.9961 32.3169 11.9961 31.6874V13.4504C11.9961 12.8209 12.5064 12.3105 13.1359 12.3105C13.7654 12.3105 14.2757 12.8209 14.2757 13.4504V30.5476Z" fill="#4C9A30"/>
<path id="Path 97" opacity="0.5" d="M18.526 25.628C18.0955 26.0873 17.3742 26.1105 16.9149 25.68C16.4557 25.2495 16.4324 24.5281 16.863 24.0689L21.1373 19.5096C21.5537 19.0655 22.2456 19.027 22.7087 19.4222L26.0822 22.3009L30.4777 16.7334C30.8677 16.2393 31.5845 16.155 32.0786 16.545C32.5727 16.9351 32.657 17.6519 32.2669 18.1459L27.1377 24.6429C26.7371 25.1504 25.9951 25.2233 25.5032 24.8037L22.0564 21.8623L18.526 25.628Z" fill="#4C9A30"/>
</g>
</g>
</svg>
