<svg width="24" height="24" viewBox="0 0 24 24" fill="none" xmlns="http://www.w3.org/2000/svg">
<g id="logo-instagram">
<path id="Shape" fill-rule="evenodd" clip-rule="evenodd" d="M7.0525 0.072C8.3325 0.014 8.741 0 12 0C15.259 0 15.6675 0.014 16.9475 0.072C18.8985 0.161 20.611 0.639 21.986 2.014C23.3615 3.3895 23.839 5.1025 23.928 7.0525C23.986 8.3325 24 8.741 24 12C24 15.259 23.986 15.6675 23.928 16.9475C23.839 18.8985 23.361 20.611 21.986 21.986C20.6105 23.3615 18.897 23.839 16.9475 23.928C15.6675 23.986 15.259 24 12 24C8.741 24 8.3325 23.986 7.0525 23.928C5.1015 23.839 3.389 23.361 2.014 21.986C0.6385 20.6105 0.161 18.8975 0.072 16.9475C0.014 15.6675 0 15.259 0 12C0 8.741 0.014 8.3325 0.072 7.0525C0.161 5.1015 0.639 3.389 2.014 2.014C3.3895 0.6385 5.1025 0.161 7.0525 0.072ZM16.8491 2.23183C15.5836 2.17384 15.2041 2.16183 12.0001 2.16183C8.79611 2.16183 8.41661 2.17434 7.15111 2.23183C5.78561 2.29433 4.51811 2.56784 3.54311 3.54283C2.56811 4.51783 2.29461 5.78533 2.23211 7.15083C2.17411 8.41633 2.16211 8.79583 2.16211 11.9998C2.16211 15.2038 2.17461 15.5833 2.23211 16.8488C2.29461 18.2143 2.56811 19.4818 3.54311 20.4568C4.51811 21.4318 5.78561 21.7053 7.15111 21.7678C8.41611 21.8258 8.79561 21.8378 12.0001 21.8378C15.2046 21.8378 15.5841 21.8253 16.8491 21.7678C18.2146 21.7053 19.4821 21.4318 20.4571 20.4568C21.4321 19.4818 21.7056 18.2143 21.7681 16.8488C21.8261 15.5833 21.8381 15.2038 21.8381 11.9998C21.8381 8.79583 21.8256 8.41633 21.7681 7.15083C21.7056 5.78533 21.4321 4.51783 20.4571 3.54283C19.4821 2.56784 18.2146 2.29433 16.8491 2.23183Z" fill="#C9DAD0"/>
<path id="Shape_2" fill-rule="evenodd" clip-rule="evenodd" d="M6.54492 12.5454C6.54492 9.23188 9.2309 6.54541 12.5449 6.54541C15.8589 6.54541 18.5449 9.23139 18.5449 12.5454C18.5449 15.8594 15.8589 18.5454 12.5449 18.5454C9.2309 18.5454 6.54492 15.859 6.54492 12.5454ZM8.65039 12.5451C8.65039 14.696 10.3943 16.44 12.5452 16.44C14.6962 16.44 16.4401 14.696 16.4401 12.5451C16.4401 10.3942 14.6962 8.65027 12.5452 8.65027C10.3943 8.65027 8.65039 10.3942 8.65039 12.5451Z" fill="#C9DAD0"/>
<ellipse id="Oval" cx="17.9996" cy="6.00013" rx="1.63637" ry="1.63636" fill="#C9DAD0"/>
</g>
</svg>
