<svg width="24" height="24" viewBox="0 0 24 24" fill="none" xmlns="http://www.w3.org/2000/svg">
<g id="logo-linkedin">
<path id="Shape" fill-rule="evenodd" clip-rule="evenodd" d="M1 0H23C23.55 0 24 0.45 24 1V23C24 23.55 23.55 24 23 24H1C0.45 24 0 23.55 0 23V1C0 0.45 0.45 0 1 0ZM3.5498 20.4498H7.0998V8.99983H3.5498V20.4498ZM5.3498 7.4501C4.1998 7.4501 3.2998 6.55009 3.2998 5.40009C3.2998 4.25008 4.1998 3.35008 5.3498 3.35008C6.4998 3.35008 7.3998 4.25008 7.3998 5.40009C7.3998 6.50009 6.4998 7.4501 5.3498 7.4501ZM16.8996 20.4501H20.3996V14.1501C20.3996 11.0501 19.7496 8.70012 16.1496 8.70012C14.4496 8.70012 13.2496 9.65013 12.7996 10.5501H12.7496V9.00012H9.34961V20.4501H12.8996V14.8001C12.8996 13.3001 13.1996 11.8501 15.0496 11.8501C16.8996 11.8501 16.8996 13.5501 16.8996 14.9001V20.4501Z" fill="#C9DAD0"/>
</g>
</svg>
