<svg width="118" height="114" viewBox="0 0 118 114" fill="none" xmlns="http://www.w3.org/2000/svg">
<g id="package" clip-path="url(#clip0_175_278)">
<g id="Group">
<path id="Vector" d="M113.203 26.7447C113.203 26.3138 113.103 25.8828 112.905 25.4757C112.507 24.6617 111.738 24.111 110.893 23.9434L60.3159 0.28732C59.4965 -0.0957735 58.5281 -0.0957735 57.7088 0.28732L6.63469 24.1589C5.64151 24.6138 4.99595 25.5715 4.94629 26.649V26.6729C4.94629 26.6969 4.94629 26.7208 4.94629 26.7687V86.675C4.94629 87.7764 5.59185 88.782 6.63469 89.2609L57.7088 113.132C57.7336 113.132 57.7336 113.132 57.7584 113.156C57.8329 113.18 57.9074 113.204 57.9819 113.252C58.0067 113.252 58.0316 113.276 58.0812 113.276C58.1557 113.3 58.2302 113.324 58.3047 113.348C58.3295 113.348 58.3543 113.372 58.3792 113.372C58.4537 113.396 58.553 113.396 58.6275 113.42C58.6523 113.42 58.6771 113.42 58.702 113.42C58.8013 113.42 58.9254 113.444 59.0247 113.444C59.1241 113.444 59.2482 113.444 59.3475 113.42C59.3723 113.42 59.3972 113.42 59.422 113.42C59.4965 113.42 59.5958 113.396 59.6703 113.372C59.6951 113.372 59.72 113.348 59.7448 113.348C59.8193 113.324 59.8938 113.3 59.9683 113.276C59.9931 113.276 60.0179 113.252 60.0676 113.252C60.1421 113.228 60.2165 113.204 60.291 113.156C60.3159 113.156 60.3159 113.156 60.3407 113.132L111.564 89.189C112.582 88.7102 113.252 87.7046 113.252 86.6032V26.8166C113.203 26.7926 113.203 26.7687 113.203 26.7447ZM58.9999 6.05767L103.296 26.7687L86.9827 34.4066L42.687 13.6956L58.9999 6.05767ZM58.9999 47.4797L14.7042 26.7687L35.8589 16.8801L80.1546 37.5911L58.9999 47.4797ZM10.9053 31.3898L56.0204 52.4839V105.949L10.9053 84.8553V31.3898ZM61.9794 105.949V52.4839L83.1589 42.5713V56.5542C83.1589 58.1345 84.4997 59.4274 86.1385 59.4274C87.7772 59.4274 89.118 58.1345 89.118 56.5542V39.7699L107.243 31.294V84.7595L61.9794 105.949Z" fill="#257009"/>
</g>
</g>
<defs>
<clipPath id="clip0_175_278">
<rect width="117.642" height="113.444" fill="white" transform="translate(0.279297)"/>
</clipPath>
</defs>
</svg>
